<?xml version="1.0" standalone="no"?>
<!DOCTYPE svg PUBLIC "-//W3C//DTD SVG 20010904//EN"
 "http://www.w3.org/TR/2001/REC-SVG-20010904/DTD/svg10.dtd">
<svg version="1.0" xmlns="http://www.w3.org/2000/svg"
 width="500.000000pt" height="500.000000pt" viewBox="0 0 500.000000 500.000000"
 preserveAspectRatio="xMidYMid meet">
<metadata>
Created by potrace 1.14, written by Peter Selinger 2001-2017
</metadata>
<g transform="translate(0.000000,500.000000) scale(0.100000,-0.100000)"
fill="#000000" stroke="none">
<path d="M2272 4497 c-247 -156 -242 -153 -242 -183 0 -26 33 -49 53 -38 6 4
103 65 215 136 l202 128 203 -128 c111 -71 208 -132 214 -136 38 -21 71 46 37
75 -41 34 -440 279 -454 279 -9 0 -111 -60 -228 -133z"/>
<path d="M3499 4486 c-77 -27 -147 -96 -239 -237 l-60 -91 0 145 c0 119 -3
148 -16 161 -8 9 -22 16 -29 16 -7 0 -21 -7 -29 -16 -14 -13 -16 -51 -16 -263
0 -227 2 -249 18 -264 17 -15 56 -17 351 -17 210 0 339 4 352 10 21 12 25 50
7 68 -9 9 -92 12 -310 12 -164 0 -298 2 -298 5 0 13 67 136 109 200 58 89 148
182 184 191 45 11 71 -9 122 -93 65 -109 118 -160 182 -179 85 -25 149 -3 141
48 -3 21 -10 24 -71 29 -82 7 -106 26 -177 144 -56 93 -84 122 -131 135 -42
12 -46 12 -90 -4z"/>
<path d="M1620 4205 l0 -235 95 0 95 0 0 235 0 235 -95 0 -95 0 0 -235z"/>
<path d="M1270 4125 l0 -155 95 0 95 0 0 155 0 155 -95 0 -95 0 0 -155z"/>
<path d="M1970 4070 l0 -100 95 0 95 0 0 100 0 100 -95 0 -95 0 0 -100z"/>
<path d="M1055 3726 c-116 -74 -216 -139 -222 -145 -10 -9 -13 -235 -13 -1067
l0 -1055 133 -85 c72 -47 170 -110 217 -140 87 -56 123 -64 143 -33 6 9 8 23
5 31 -4 8 -97 72 -207 142 l-201 128 2 1016 3 1017 198 125 c108 69 200 133
203 143 6 19 -21 57 -40 57 -6 -1 -105 -61 -221 -134z"/>
<path d="M3696 3841 c-10 -11 -15 -27 -12 -38 3 -10 95 -74 203 -143 l198
-125 3 -1017 2 -1016 -201 -128 c-110 -70 -203 -134 -207 -142 -3 -8 -1 -22 5
-31 20 -31 56 -23 143 33 47 30 145 93 218 140 l132 85 0 1053 c0 579 -4 1058
-8 1063 -9 14 -437 285 -449 285 -6 0 -18 -9 -27 -19z"/>
<path d="M2375 3744 c-150 -21 -192 -28 -274 -50 -199 -54 -353 -157 -405
-273 l-26 -59 2 -859 3 -858 30 -54 c68 -124 234 -218 477 -273 90 -20 130
-23 318 -23 188 0 228 3 318 23 246 55 415 154 484 283 l23 44 0 870 0 870
-25 49 c-69 135 -270 244 -535 291 -88 15 -331 27 -390 19z m405 -108 c343
-71 523 -233 440 -395 -85 -168 -484 -287 -847 -253 -359 33 -613 170 -613
331 0 52 12 81 52 127 80 91 250 164 463 199 113 18 396 13 505 -9z m-844
-1162 c310 -151 818 -151 1128 0 50 24 110 61 134 81 l42 37 0 -180 0 -180
-32 -48 c-64 -94 -214 -169 -430 -215 -147 -32 -409 -32 -556 0 -216 46 -366
121 -429 215 l-33 48 0 180 0 180 43 -37 c23 -20 83 -57 133 -81z"/>
<path d="M1729 1019 c-85 -73 -164 -141 -175 -151 -22 -19 -22 -19 -120 66
-55 47 -104 86 -111 86 -6 0 -68 -45 -137 -101 -127 -102 -145 -126 -114 -157
22 -22 41 -13 139 68 54 44 104 80 111 80 7 -1 54 -37 103 -80 50 -44 98 -80
107 -80 24 0 402 327 406 351 4 25 -15 49 -38 49 -9 0 -86 -59 -171 -131z"/>
<path d="M3258 1115 c-114 -60 -167 -202 -120 -324 20 -53 30 -58 64 -31 25
19 25 21 12 57 -18 50 -17 86 2 131 19 46 57 87 95 102 25 11 29 18 29 51 0
47 -13 49 -82 14z"/>
<path d="M3430 1101 c0 -31 4 -41 21 -46 31 -10 85 -62 99 -95 11 -26 18 -30
51 -30 50 0 51 16 6 90 -23 40 -47 64 -87 87 -74 45 -90 44 -90 -6z"/>
<path d="M3319 951 c-62 -63 -21 -161 67 -161 85 0 126 100 65 161 -41 40 -91
40 -132 0z"/>
<path d="M3550 810 c-33 -80 -130 -124 -220 -100 -41 11 -44 10 -69 -15 -25
-26 -26 -26 -6 -41 46 -34 150 -44 218 -20 77 28 149 105 163 174 6 32 6 32
-34 32 -35 0 -41 -4 -52 -30z"/>
<path d="M2040 746 c-30 -37 -10 -56 220 -202 124 -79 232 -143 240 -143 8 0
116 64 240 143 168 107 226 149 228 165 4 25 -14 51 -34 51 -7 0 -106 -58
-219 -130 -113 -72 -210 -130 -215 -130 -5 0 -102 59 -215 130 -113 72 -212
130 -219 130 -8 0 -19 -7 -26 -14z"/>
</g>
</svg>
